<svg xmlns="http://www.w3.org/2000/svg" version="1.1" xmlns:xlink="http://www.w3.org/1999/xlink" xmlns:svgjs="http://svgjs.dev/svgjs" width="1000" height="315" viewBox="0 0 1000 315"><g transform="matrix(1,0,0,1,-0.6060606060606233,-0.26480006082670116)"><svg viewBox="0 0 396 125" data-background-color="#ffffff" preserveAspectRatio="xMidYMid meet" height="315" width="1000" xmlns="http://www.w3.org/2000/svg" xmlns:xlink="http://www.w3.org/1999/xlink"><g id="tight-bounds" transform="matrix(1,0,0,1,0.2400000000000091,0.10507938921693949)"><svg viewBox="0 0 395.52 124.78983703017106" height="124.78983703017106" width="395.52"><g><svg viewBox="0 0 661.6750509289952 208.76396079176644" height="124.78983703017106" width="395.52"><g transform="matrix(1,0,0,1,266.1550509289952,20.912147076896517)"><svg viewBox="0 0 395.52 166.9396666379734" height="166.9396666379734" width="395.52"><g id="textblocktransform"><svg viewBox="0 0 395.52 166.9396666379734" height="166.9396666379734" width="395.52" id="textblock"><g><svg viewBox="0 0 395.52 92.01990430622008" height="92.01990430622008" width="395.52"><g transform="matrix(1,0,0,1,0,0)"><svg width="395.52" viewBox="0.8100000023841858 -37.5 163.260009765625 37.9900016784668" height="92.01990430622008" data-palette-color="#6b7280"><path d="M20.75-26.42L26.25-8.18 30.44-26.42 36.23-26.42 29.03 0 24.15 0 18.48-18.14 12.92 0 8.03 0 0.81-26.42 6.59-26.42 10.86-8.37 16.28-26.42 20.75-26.42ZM39.08-13.16L39.08-13.45Q39.08-17.33 40.62-20.45 42.16-23.56 44.94-25.23 47.73-26.9 51.34-26.9L51.34-26.9Q56.69-26.9 60.02-23.46 63.35-20.02 63.62-14.33L63.62-14.33 63.64-12.94Q63.64-9.03 62.14-5.96 60.64-2.88 57.85-1.2 55.05 0.49 51.39 0.49L51.39 0.49Q45.8 0.49 42.44-3.23 39.08-6.96 39.08-13.16L39.08-13.16ZM45.02-12.94L45.02-12.94Q45.02-8.86 46.7-6.56 48.39-4.25 51.39-4.25 54.39-4.25 56.06-6.59 57.74-8.94 57.74-13.45L57.74-13.45Q57.74-17.46 56.02-19.8 54.29-22.14 51.34-22.14L51.34-22.14Q48.44-22.14 46.73-19.84 45.02-17.53 45.02-12.94ZM82.51-26.56L82.49-21Q81.32-21.19 80.07-21.19L80.07-21.19Q76-21.19 74.58-18.07L74.58-18.07 74.58 0 68.65 0 68.65-26.42 74.31-26.42 74.46-23.46Q76.61-26.9 80.41-26.9L80.41-26.9Q81.68-26.9 82.51-26.56L82.51-26.56ZM102.65 0L94.82-11.33 92.18-8.62 92.18 0 86.25 0 86.25-37.5 92.18-37.5 92.18-15.87 94.04-18.19 101.34-26.42 108.46-26.42 98.65-15.41 109.51 0 102.65 0ZM146.62 0L140.56 0Q140.17-0.76 139.88-2.47L139.88-2.47Q137.05 0.49 132.95 0.49L132.95 0.49Q128.97 0.49 126.45-1.78 123.94-4.05 123.94-7.4L123.94-7.4Q123.94-11.62 127.07-13.88 130.21-16.14 136.05-16.14L136.05-16.14 139.68-16.14 139.68-17.87Q139.68-19.92 138.54-21.15 137.39-22.39 135.05-22.39L135.05-22.39Q133.02-22.39 131.73-21.37 130.43-20.36 130.43-18.8L130.43-18.8 124.5-18.8Q124.5-20.97 125.94-22.86 127.38-24.76 129.86-25.83 132.34-26.9 135.39-26.9L135.39-26.9Q140.03-26.9 142.79-24.57 145.54-22.24 145.62-18.02L145.62-18.02 145.62-6.1Q145.62-2.54 146.62-0.42L146.62-0.42 146.62 0ZM134.05-4.27L134.05-4.27Q135.8-4.27 137.35-5.13 138.9-5.98 139.68-7.42L139.68-7.42 139.68-12.4 136.49-12.4Q133.19-12.4 131.53-11.25 129.87-10.11 129.87-8.01L129.87-8.01Q129.87-6.3 131.01-5.29 132.14-4.27 134.05-4.27ZM153.33-32.84L159.26-32.84 159.26-26.42 163.93-26.42 163.93-22.02 159.26-22.02 159.26-7.28Q159.26-5.76 159.86-5.09 160.46-4.42 162-4.42L162-4.42Q163.02-4.42 164.07-4.66L164.07-4.66 164.07-0.07Q162.05 0.49 160.17 0.49L160.17 0.49Q153.33 0.49 153.33-7.06L153.33-7.06 153.33-22.02 148.98-22.02 148.98-26.42 153.33-26.42 153.33-32.84Z" opacity="1" transform="matrix(1,0,0,1,0,0)" fill="#000000" class="wordmark-text-0" data-fill-palette-color="primary" id="text-0"></path></svg></g></svg></g><g transform="matrix(1,0,0,1,0,113.7435952352153)"><svg viewBox="0 0 232.20979199999996 53.19607140275811" height="53.19607140275811" width="232.20979199999996"><g transform="matrix(1,0,0,1,0,0)"><svg width="232.20979199999996" viewBox="0.5871794819831848 -37.70000076293945 166.29283142089844 38.10000228881836" height="53.19607140275811" data-palette-color="#000000"><path d="M26.85-1.55L31.75-21.5Q32-22.4 32-23.38 32-24.35 31.25-25L31.25-25Q32.2-25.6 33.05-25.6L33.05-25.6Q34.95-25.6 34.95-23.4L34.95-23.4Q34.95-22.5 34.6-21.15L34.6-21.15 29.6-2.4Q28.85 0.4 26.68 0.4 24.5 0.4 23.7-2.4L23.7-2.4 18.5-21.3 13.6-2.4Q12.85 0.4 10.6 0.4 8.35 0.4 7.75-2.4L7.75-2.4 2.6-22.05Q2.3-23.4 0.9-23.4L0.9-23.4Q0.75-23.4 0.6-23.4L0.6-23.4Q0.5-24.35 1.18-24.98 1.85-25.6 2.8-25.6L2.8-25.6Q5-25.6 5.8-22.7L5.8-22.7 10.85-2 16.35-23Q17.05-25.6 18.9-25.6L18.9-25.6Q19.85-25.6 20.43-25 21-24.4 21.4-23L21.4-23 26.85-1.55ZM55.77-20.38Q53.3-23.05 49.57-23.05 45.85-23.05 43.7-20.6 41.55-18.15 41.55-13.45L41.55-13.45Q41.55-7.55 44.07-4.83 46.6-2.1 50.32-2.1 54.05-2.1 56.15-4.6 58.25-7.1 58.25-11.75L58.25-11.75Q58.25-17.7 55.77-20.38ZM41.72-22.2Q45.2-25.6 49.95-25.6 54.7-25.6 58.12-22.15 61.55-18.7 61.55-12.58 61.55-6.45 58.12-3.03 54.7 0.4 49.95 0.4 45.2 0.4 41.72-3.03 38.25-6.45 38.25-12.63 38.25-18.8 41.72-22.2ZM71.95-22.75L71.95-22.75 71.95-20.2Q72.95-22.8 74.8-24.2 76.65-25.6 79.02-25.6 81.4-25.6 82.62-24.48 83.84-23.35 83.84-21.98 83.84-20.6 83.15-19.93 82.45-19.25 81.7-19.25 80.95-19.25 80.34-19.45L80.34-19.45Q80.45-19.95 80.45-20.8L80.45-20.8Q80.45-23.25 77.95-23.25L77.95-23.25Q76.2-23.25 74.42-21.48 72.65-19.7 71.95-15.95L71.95-15.95 71.95-2.55Q71.95-1.45 73.09-1.05L73.09-1.05Q72.3 0.4 71 0.4L71 0.4Q68.8 0.4 68.8-2.45L68.8-2.45 68.8-22.6Q68.8-23.75 67.65-24.15L67.65-24.15Q68.34-25.6 69.7-25.6L69.7-25.6Q71.95-25.6 71.95-22.75ZM92.04-34.9L92.04-34.9 92.04-14.3Q97.69-16.75 100.54-19.7 103.39-22.65 103.39-25.6L103.39-25.6Q104.64-25.6 105.37-24.9 106.09-24.2 106.09-22.9L106.09-22.9Q106.09-20.45 102.94-17.9 99.79-15.35 94.99-13.75L94.99-13.75Q98.94-8.65 101.47-6.15 103.99-3.65 105.22-3.13 106.44-2.6 108.09-2.6L108.09-2.6Q108.09-1.4 107.47-0.5 106.84 0.4 105.64 0.4L105.64 0.4Q103.44 0.4 101.29-1.85 99.14-4.1 92.04-13.25L92.04-13.25 92.04-2.55Q92.04-1.45 93.19-1.05L93.19-1.05Q92.39 0.4 91.09 0.4L91.09 0.4Q88.89 0.4 88.89-2.45L88.89-2.45 88.89-34.7Q88.89-35.8 87.74-36.3L87.74-36.3Q88.34-37.7 89.79-37.7L89.79-37.7Q92.04-37.7 92.04-34.9ZM129.44-6.25L129.44-6.25Q129.44-2.4 133.74-2.4 138.04-2.4 140.89-6.2L140.89-6.2 140.89-12.45Q135.09-12.15 132.26-10.45 129.44-8.75 129.44-6.25ZM144.09-17.8L144.09-17.8 144.09-4Q144.09-1.4 146.44-1.3L146.44-1.3Q145.79 0.4 144.19 0.4L144.19 0.4Q140.89 0.4 140.89-3.85L140.89-3.85Q137.99 0.4 132.99 0.4L132.99 0.4Q129.99 0.4 128.01-1.3 126.04-3 126.04-5.95L126.04-5.95Q126.04-9.65 129.69-11.9 133.34-14.15 140.89-14.4L140.89-14.4 140.89-16.95Q140.89-20.45 139.69-22.08 138.49-23.7 135.79-23.7 133.09-23.7 131.79-22.65 130.49-21.6 130.49-20.33 130.49-19.05 131.14-18.4L131.14-18.4Q130.29-17.85 129.34-17.85 128.39-17.85 127.71-18.45 127.04-19.05 127.04-20.15L127.04-20.15Q127.04-22.4 129.54-24 132.04-25.6 135.84-25.6 139.64-25.6 141.86-23.48 144.09-21.35 144.09-17.8ZM157.63-22.4L156.88-22.4 156.88-5.95Q156.88-4.05 157.63-3.25 158.38-2.45 160.13-2.45L160.13-2.45Q163.38-2.45 166.24-5.1L166.24-5.1Q166.88-4.6 166.88-3.85L166.88-3.85Q166.88-2.25 164.78-0.93 162.69 0.4 159.49 0.4L159.49 0.4Q153.69 0.4 153.69-6L153.69-6 153.69-22.4Q149.49-22.55 149.49-24.2L149.49-24.2Q149.49-24.95 149.99-25.4L149.99-25.4Q151.59-25.15 152.74-25.15L152.74-25.15 153.69-25.15 153.69-29.85Q153.69-30.95 152.53-31.45L152.53-31.45Q153.28-32.85 154.63-32.85L154.63-32.85Q156.88-32.85 156.88-30L156.88-30 156.88-25.15 165.49-25.15Q165.69-24.8 165.69-24.35L165.69-24.35Q165.69-22.4 157.63-22.4L157.63-22.4Z" opacity="1" transform="matrix(1,0,0,1,0,0)" fill="#000000" class="slogan-text-1" data-fill-palette-color="secondary" id="text-1"></path></svg></g></svg></g></svg></g></svg></g><g><svg viewBox="0 0 244.43135999999996 208.76396079176644" height="208.76396079176644" width="244.43135999999996"><g><svg xmlns="http://www.w3.org/2000/svg" xmlns:xlink="http://www.w3.org/1999/xlink" version="1.1" x="0" y="0" viewBox="0 0 99.99998474121094 85.40799713134766" enable-background="new 0 0 100 85.408" xml:space="preserve" width="244.43135999999996" height="208.76396079176644" class="icon-icon-0" data-fill-palette-color="accent" id="icon-0"><path d="M98.926 69.526h-7.748c0.426-0.614 0.687-1.323 0.687-2.089 0-2.257-2.121-4.095-4.729-4.095-1.046 0-2.005 0.307-2.789 0.808-0.062-0.09-0.115-0.185-0.204-0.254-0.253-0.203-0.587-0.285-0.908-0.208-4.572 1.032-6.97-3.659-7.18-4.031-1.501-1.972-3.054-3.339-4.563-4.291H83.44c2.504 0 4.543-2.037 4.543-4.541V4.543C87.983 2.039 85.944 0 83.44 0H9.692C7.188 0 5.149 2.039 5.149 4.543v46.281c0 2.504 2.039 4.541 4.543 4.541h23.255c-1.378 0.377-3.352 1.177-4.623 2.935-0.887 1.227-1.252 2.693-1.131 4.36h-3.385c-2.578 0-4.927 2.202-4.927 4.621v2.244H1.074C0.48 69.526 0 70.006 0 70.6c0 0.593 0.48 1.073 1.074 1.073h17.808v12.661c0 0.593 0.48 1.073 1.074 1.073s1.074-0.48 1.074-1.073V67.282c0-1.248 1.376-2.474 2.779-2.474h4.237c0.122 0.049 0.252 0.078 0.386 0.078 0.075 0 0.155-0.009 0.233-0.025 0.044-0.011 0.075-0.038 0.117-0.053h42.432c1.361 0 2.604 1.18 2.604 2.474v17.053c0 0.593 0.479 1.073 1.073 1.073s1.074-0.48 1.074-1.073V71.673h22.961c0.594 0 1.074-0.48 1.074-1.073C100 70.006 99.52 69.526 98.926 69.526zM73.175 16.308H62.874c-0.101 0-0.192 0.032-0.285 0.057-0.572-0.915-1.21-1.783-1.994-2.55C55.315 8.65 47.238 8.78 46.887 8.782c-6.032 0.262-10.603 2.146-13.585 5.599-0.606 0.703-1.114 1.43-1.537 2.167-0.183-0.141-0.401-0.239-0.648-0.239H19.1c-0.593 0-1.074 0.48-1.074 1.074v31.544h-3.184c-1.319 0-2.393-1.074-2.393-2.396V9.693c0-1.322 1.074-2.396 2.393-2.396h63.635c1.319 0 2.394 1.074 2.394 2.396v36.838c0 1.321-1.074 2.396-2.394 2.396h-4.228V17.382C74.249 16.789 73.769 16.308 73.175 16.308zM64.818 22.895c-0.182-1.609-0.589-3.075-1.151-4.438h8.435v30.47h-7.992c-0.057-0.801-0.146-1.646-0.308-2.573l-1.087-10.028c0.137 0.008 0.267 0.042 0.405 0.042 3.779 0 6.854-3.075 6.854-6.855C69.975 26.319 67.774 23.656 64.818 22.895zM62.614 22.695c-0.417 0.038-0.828 0.104-1.225 0.209-2.098-5.972-7.78-10.271-14.458-10.271s-12.358 4.3-14.456 10.271c-0.181-0.048-0.365-0.08-0.55-0.117 0.267-1.984 1.009-4.707 3.016-7.021 2.582-2.977 6.632-4.604 12.017-4.837 0.027-0.008 7.5-0.111 12.134 4.419C61.028 17.242 62.19 19.717 62.614 22.695zM20.174 18.456h10.672c-0.627 1.562-0.944 3.066-1.088 4.3-3.308 0.482-5.865 3.312-5.865 6.756 0 3.78 3.075 6.855 6.853 6.855 0.688 0 1.34-0.132 1.967-0.323l-0.277 12.883H20.174V18.456zM7.297 50.825V4.543c0-1.321 1.074-2.396 2.395-2.396H83.44c1.321 0 2.396 1.074 2.396 2.396v46.281c0 1.319-1.074 2.394-2.396 2.394H63.902c0.124-0.648 0.225-1.341 0.256-2.145h14.318c2.504 0 4.541-2.038 4.541-4.543V9.693c0-2.504-2.037-4.543-4.541-4.543H14.842c-2.504 0-4.541 2.039-4.541 4.543v36.838c0 2.505 2.037 4.543 4.541 4.543H32.39l-0.015 0.709c-0.004 0.049-0.032 0.628 0.13 1.436H9.692C8.371 53.218 7.297 52.144 7.297 50.825zM82.4 69.436l-6.436 0.083v-2.237c0-2.463-2.219-4.621-4.751-4.621H29.348c-0.115-1.219 0.111-2.261 0.711-3.094 1.466-2.039 4.619-2.392 4.65-2.396 0.075-0.008 0.14-0.042 0.209-0.064 1.727 1.373 4.159 2.06 7.234 1.99 0.332 0.048 10.427 0.432 14.991-0.25 0.096-0.057 4.832-0.402 6.034-3.176 1.913-0.352 6.737-0.539 11.06 5.112 0.999 2.026 3.954 5.444 8.162 5.188V69.436zM87.136 69.376c-1.396 0-2.577-0.889-2.577-1.939 0-1.056 1.181-1.947 2.577-1.947 1.399 0 2.58 0.892 2.58 1.947C89.716 68.488 88.535 69.376 87.136 69.376z" fill="#000000" data-fill-palette-color="accent"></path></svg></g></svg></g></svg></g><defs></defs></svg><rect width="395.52" height="124.78983703017106" fill="none" stroke="none" visibility="hidden"></rect></g></svg></g></svg>